<?xml version="1.0" standalone="no"?><!DOCTYPE svg PUBLIC "-//W3C//DTD SVG 1.1//EN" "http://www.w3.org/Graphics/SVG/1.1/DTD/svg11.dtd"><svg t="1730268185068" class="icon" viewBox="0 0 1196 1024" version="1.1" xmlns="http://www.w3.org/2000/svg" p-id="6906" xmlns:xlink="http://www.w3.org/1999/xlink" width="37.375" height="32"><path d="M105.686654 337.736565v615.537887c0 39.041287 34.548597 70.725548 77.180113 70.725548h810.293093c42.631516 0 77.180113-31.684261 77.180113-70.725548V337.736565H105.686654z" fill="#FBB713" p-id="6907"></path><path d="M747.670598 616.204924H428.356028v407.795076h319.31457V616.204924z" fill="#142A3B" p-id="6908"></path><path d="M133.957254 0.019619L0.000515 256.868129c0 44.652246 23.267823 80.868436 51.911179 80.868436h1073.301887c28.662975 0 51.911179-36.216189 51.91118-80.868436L1043.168021 0.019619H133.957254z" fill="#FF3A2F" p-id="6909"></path><path d="M428.356028 616.204924v51.773848h215.786493v356.040847h103.528077V616.204924H428.356028z" opacity=".35" p-id="6910"></path><path d="M113.730336 329.006227a19.618737 19.618737 0 0 1-18.166951-27.034621l113.357065-278.311409a19.618737 19.618737 0 0 1 36.35352 14.812147L131.897287 316.783753a19.618737 19.618737 0 0 1-18.166951 12.222474zM355.845174 329.006227a19.618737 19.618737 0 0 1-19.167506-23.93486l62.583772-278.311409a19.618737 19.618737 0 1 1 38.276157 8.612626l-62.583772 278.311409a19.618737 19.618737 0 0 1-19.108651 15.322234zM1059.942042 329.006227a19.618737 19.618737 0 0 1-17.853051-11.457343L914.586816 39.237475a19.618737 19.618737 0 0 1 35.686484-16.342408l127.502174 278.311409a19.618737 19.618737 0 0 1-17.833432 27.799751zM820.868108 329.006227a19.618737 19.618737 0 0 1-19.049794-15.047572l-66.899895-278.311409a19.599119 19.599119 0 1 1 38.138826-9.16195l66.899894 278.311409a19.618737 19.618737 0 0 1-19.089031 24.209522zM588.582257 329.006227a19.618737 19.618737 0 0 1-19.618738-19.618738V31.056461a19.618737 19.618737 0 1 1 39.237475 0v278.331028a19.618737 19.618737 0 0 1-19.618737 19.618738z" fill="#142A3B" p-id="6911"></path><path d="M51.911694 337.736565h1073.301887c28.662975 0 51.911179-36.216189 51.91118-80.868436h-1177.124246c0 44.652246 23.267823 80.868436 51.911179 80.868436z" fill="#010101" opacity=".25" p-id="6912"></path><path d="M1070.339973 472.752716L105.686654 420.998486v-83.261921h964.653319v135.016151z" opacity=".35" p-id="6913"></path></svg>