<?xml version="1.0" standalone="no"?><!DOCTYPE svg PUBLIC "-//W3C//DTD SVG 1.1//EN" "http://www.w3.org/Graphics/SVG/1.1/DTD/svg11.dtd"><svg t="1730449620120" class="icon" viewBox="0 0 1024 1024" version="1.1" xmlns="http://www.w3.org/2000/svg" p-id="13534" xmlns:xlink="http://www.w3.org/1999/xlink" width="32" height="32"><path d="M994.802 251.097v567.292c0 48.281-42.244 90.527-90.523 90.527H493.896c-18.105 0-30.175-12.07-30.175-30.178 0-36.209-30.176-66.383-66.385-66.383-36.211 0-72.422 30.174-72.422 66.383 0 18.107-12.069 30.178-30.174 30.178H119.725c-48.28 0-90.526-42.246-90.526-90.527V251.097c0-48.28 42.247-90.524 90.526-90.524h175.016c18.104 0 30.174 12.07 30.174 30.175 0 36.209 30.177 66.385 66.386 66.385 36.211 0 66.387-30.176 66.387-66.385 0-18.105 12.069-30.175 30.173-30.175h410.381c54.316 0 96.56 42.244 96.56 90.524zM524.07 848.564h380.208c18.105 0 30.174-12.068 30.174-30.176V251.097c0-18.105-12.068-30.175-30.174-30.175H524.07c-12.068 54.315-66.383 96.56-126.734 96.56-60.353 0-114.665-42.244-126.737-96.56H119.725c-18.105 0-30.176 12.07-30.176 30.175v567.292c0 18.107 12.071 30.176 30.176 30.176h150.874c12.072-54.314 66.385-96.561 126.737-96.561 60.351 0 108.629 42.246 126.734 96.56z" fill="#666666" p-id="13535"></path><path d="M158.602 617.545l25.5-30.601c15.9 14.7 36.9 24.601 56.4 24.601 23.1 0 35.4-9.9 35.4-25.5 0-16.501-13.5-21.601-33.3-30.001l-29.7-12.6c-22.5-9.301-45-27.301-45-59.701 0-36.3 31.8-64.2 76.801-64.2 25.8 0 51.601 10.2 69.601 28.5l-22.5 27.9c-14.1-11.7-28.8-18.3-47.1-18.3-19.5 0-32.101 8.7-32.101 23.399 0 15.9 15.9 21.601 34.8 29.101l29.101 12.301c27 11.1 44.7 28.2 44.7 60.3 0 36.301-30.3 67.201-81.601 67.201-29.7 0-59.401-11.7-81.001-32.4zM464.601 588.744H392.6L377 645.745h-45l71.101-222.002h52.2l71.4 222.002h-46.5l-15.6-57.001z m-9.6-34.5l-6.6-24.3c-6.9-23.101-12.9-48.601-19.5-72.602h-1.2c-5.7 24.301-12.3 49.501-18.9 72.602l-6.6 24.3h52.8zM552.797 423.743h44.4v184.802h90.002v37.2H552.797V423.743zM725.896 423.743h136.201v36.9h-91.801v51.3h78v37.201h-78v59.4h95.102v37.2H725.896V423.743z" fill="#666666" p-id="13536"></path></svg>