<?xml version="1.0" standalone="no"?><!DOCTYPE svg PUBLIC "-//W3C//DTD SVG 1.1//EN" "http://www.w3.org/Graphics/SVG/1.1/DTD/svg11.dtd"><svg t="1730771681978" class="icon" viewBox="0 0 1024 1024" version="1.1" xmlns="http://www.w3.org/2000/svg" p-id="16570" xmlns:xlink="http://www.w3.org/1999/xlink" width="32" height="32"><path d="M245.137093 610.752118c-134.992507 0-244.790192-109.796662-244.790192-244.790192S110.143563 121.172757 245.137093 121.172757s244.790192 109.796662 244.790192 244.790192S380.1296 610.752118 245.137093 610.752118zM245.137093 184.17772c-100.229772 0-181.78523 81.555457-181.78523 181.78523S144.907321 547.748179 245.137093 547.748179s181.78523-81.555457 181.78523-181.78523S345.365842 184.17772 245.137093 184.17772z" fill="#845555" p-id="16571"></path><path d="M778.862907 610.752118c-134.992507 0-244.820891-109.796662-244.820891-244.790192S643.8704 121.172757 778.862907 121.172757s244.790192 109.796662 244.790192 244.790192S913.855414 610.752118 778.862907 610.752118zM778.862907 184.17772c-100.260471 0-181.815929 81.555457-181.815929 181.78523S678.602436 547.748179 778.862907 547.748179c100.229772 0 181.78523-81.555457 181.78523-181.78523S879.092679 184.17772 778.862907 184.17772z" fill="#845555" p-id="16572"></path><path d="M887.24536 902.827243l-63.004963 0c0-113.980961-66.23554-206.734458-147.668201-206.734458s-147.668201 92.753497-147.668201 206.734458l-63.004963 0c0-148.744719 94.507444-269.739421 210.67214-269.739421S887.24536 754.082524 887.24536 902.827243z" fill="#845555" p-id="16573"></path><path d="M198.805882 902.827243l-63.004963 0c0-148.744719 94.507444-269.739421 210.67214-269.739421 43.807738 0 85.739756 16.85897 121.241318 48.729841l-42.085514 46.88482c-23.749914-21.319561-51.129494-32.609699-79.155804-32.609699C265.041422 696.091762 198.805882 788.846282 198.805882 902.827243z" fill="#845555" p-id="16574"></path><path d="M145.81397 424.627047c22.981411 51.366901 80.762395 79.348186 136.365784 63.274092 55.608505-16.07614 89.541339-70.571289 81.572854-126.279055L145.81397 424.627047z" fill="#845555" p-id="16575"></path><path d="M878.171704 424.627047c-22.981411 51.366901-80.762395 79.348186-136.365784 63.274092-55.608505-16.07614-89.541339-70.571289-81.572854-126.279055L878.171704 424.627047z" fill="#845555" p-id="16576"></path></svg>