<?xml version="1.0" standalone="no"?><!DOCTYPE svg PUBLIC "-//W3C//DTD SVG 1.1//EN" "http://www.w3.org/Graphics/SVG/1.1/DTD/svg11.dtd"><svg t="1730342109893" class="icon" viewBox="0 0 1024 1024" version="1.1" xmlns="http://www.w3.org/2000/svg" p-id="9027" xmlns:xlink="http://www.w3.org/1999/xlink" width="32" height="32"><path d="M561 637.3c-49.2-49.2-128.8-49.2-178 0 49.2-49.2 49.2-128.8 0-178l-59.9-59.9c-11.1-11.1-29.1-11.1-40.2 0L243 439.2c-60.3 60.3-60.3 158 0 218.2l59.9 59.9 59.9 59.9c60.3 60.3 158 60.3 218.2 0l39.8-39.8c11.1-11.1 11.1-29.1 0-40.3L561 637.3z" fill="#FFD401" p-id="9028"></path><path d="M673.6 524.7c-49.2-49.2-128.8-49.2-178 0 49.2-49.2 49.2-128.8 0-178l-59.9-59.9c-11.1-11.1-29.1-11.1-40.3 0l-39.8 39.8c-60.3 60.3-60.3 158 0 218.2l59.9 59.9 59.9 59.9c60.3 60.3 158 60.3 218.2 0l39.8-39.8c11.1-11.1 11.1-29.1 0-40.3l-59.8-59.8z" fill="#FFD401" p-id="9029"></path><path d="M924.8 399c-9.6-9.6-25.1-9.6-34.7 0l-58.4 58.4-40.9-40.9 58.4-58.4c9.6-9.6 9.6-25.1 0-34.7-9.6-9.6-25.1-9.6-34.7 0l-63.8 63.8c-22.4-10.5-47.2-14-71.2-10.6l94.1-94.1c9.6-9.6 9.6-25.1 0-34.7-9.6-9.6-25.1-9.6-34.7 0l-95.5 95.5c3.9-24.3 0.7-49.5-9.6-72.3l64.2-64.2c9.6-9.6 9.6-25.1 0-34.7-9.6-9.6-25.1-9.6-34.7 0l-58.4 58.4-40.9-40.8 58.4-58.4c9.6-9.6 9.6-25.1 0-34.7-9.6-9.6-25.1-9.6-34.7 0 0 0-77.3 75.3-79.5 77.5l-39.8 39.8c-60.3 60.3-60.3 158 0 218.2l59.9 59.9 59.9 59.9c60.3 60.3 158 60.3 218.2 0l39.8-39.8c1.3-1.3 2.5-2.8 3.5-4.3 1.5-0.9 2.9-2 4.2-3.3l70.8-70.8c9.7-9.6 9.7-25.2 0.1-34.7z" fill="#FFD401" p-id="9030"></path><path d="M214.2 831.7c-6.3 0-12.5-2.4-17.3-7.2-9.6-9.6-9.6-25.1 0-34.7l404.3-404.3c9.6-9.6 25.1-9.6 34.7 0 9.6 9.6 9.6 25.1 0 34.7L231.6 824.5c-4.8 4.8-11.1 7.2-17.4 7.2z" fill="#FFD401" p-id="9031"></path><path d="M355.7 544.8l43.1 43.1 19.3-19.3c6.3-38.6-5.3-79.5-35.1-109.3l-59.9-59.9c-2.1-2.1-4.5-3.6-6.9-4.9-14.4 51.8-1.2 109.6 39.5 150.3zM561 637.3c-29.1-29.1-69-40.8-106.8-35.5l-20.7 20.7 42 42c40.7 40.7 98.5 53.9 150.3 39.6-1.3-2.5-2.9-4.9-4.9-6.9L561 637.3z" fill="#FFB000" p-id="9032"></path><path d="M468.4 432.1l43.1 43.1 19.3-19.3c6.3-38.6-5.3-79.5-35.1-109.3l-59.9-59.9c-2.1-2.1-4.5-3.6-6.9-4.9-14.4 51.8-1.2 109.6 39.5 150.3z" fill="#FFD401" p-id="9033"></path><path d="M468.4 432.1l43.1 43.1 19.3-19.3c6.3-38.6-5.3-79.5-35.1-109.3l-59.9-59.9c-2.1-2.1-4.5-3.6-6.9-4.9-14.4 51.8-1.2 109.6 39.5 150.3zM673.6 524.7c-29.1-29.1-69-40.8-106.8-35.5l-20.7 20.7 42 42c40.7 40.7 98.5 53.9 150.3 39.6-1.3-2.5-2.9-4.9-4.9-6.9l-59.9-59.9z" fill="#FFB000" p-id="9034"></path><path d="M534.6 498.3l-6.3-6.3-6.3-6.3c-6.1 14.1-14.8 27.4-26.4 38.9 11.6-11.5 24.9-20.2 39-26.3zM409.4 598.4c-6.1 14.1-14.8 27.4-26.4 38.9 11.5-11.5 24.8-20.3 38.9-26.4l-6.3-6.3-6.2-6.2z" fill="#FFD401" p-id="9035"></path><path d="M421.9 611c-14.1 6.1-27.4 14.8-38.9 26.4 11.5-11.5 20.3-24.8 26.4-38.9L398.9 588 286.1 700.6l16.8 16.8 17.9 17.9 112.7-112.7-11.6-11.6zM495.6 524.7c11.5-11.5 20.3-24.8 26.4-38.9l-10.5-10.5-93.4 93.4c-1.7 10.2-4.5 20.2-8.7 29.8l6.3 6.3 6.3 6.3c10.4-4.5 21.2-7.5 32.3-9.1l92-92-11.6-11.6c-14.2 6-27.5 14.7-39.1 26.3z" fill="#FFB000" p-id="9036"></path><path d="M433.5 622.6l20.7-20.7c-11 1.6-21.9 4.6-32.3 9.1l11.6 11.6zM398.8 587.9l10.5 10.5c4.2-9.6 7.1-19.6 8.7-29.8l-19.2 19.3z" fill="#FF9200" p-id="9037"></path><path d="M528.3 492l6.3 6.3c10.4-4.5 21.2-7.5 32.3-9.1l69-69c9.6-9.6 9.6-25.1 0-34.7-9.6-9.6-25.1-9.6-34.7 0l-70.4 70.4c-1.7 10.2-4.5 20.2-8.7 29.8l6.2 6.3z" fill="#FFB000" p-id="9038"></path><path d="M522 485.7c4.2-9.6 7.1-19.6 8.7-29.8l-19.3 19.3 10.6 10.5zM546.2 509.9l20.7-20.7c-11 1.6-21.9 4.6-32.3 9.1l11.6 11.6z" fill="#FF9200" p-id="9039"></path></svg>