<?xml version="1.0" standalone="no"?><!DOCTYPE svg PUBLIC "-//W3C//DTD SVG 1.1//EN" "http://www.w3.org/Graphics/SVG/1.1/DTD/svg11.dtd"><svg t="1729839031006" class="icon" viewBox="0 0 1024 1024" version="1.1" xmlns="http://www.w3.org/2000/svg" p-id="40836" xmlns:xlink="http://www.w3.org/1999/xlink" width="200" height="200"><path d="M504.704 41.948a22.176 22.176 0 0 0 13.22 0l19.564-6.112A25.528 25.528 0 0 0 512 11.52a25.536 25.536 0 0 0-25.512 24.736l18.216 5.692z" fill="#8C5046" p-id="40837"></path><path d="M511.316 52.964a32.176 32.176 0 0 1-9.596-1.472l-18.216-5.692a9.996 9.996 0 0 1-7.012-9.86A35.38 35.38 0 0 1 512 1.52a35.492 35.492 0 0 1 35.48 33.836 9.996 9.996 0 0 1-7.004 10.024l-19.564 6.112a32.048 32.048 0 0 1-9.596 1.472z m-12.904-23.46l9.276 2.9a12.06 12.06 0 0 0 7.252 0l10.42-3.256A15.48 15.48 0 0 0 512 21.52c-5.864 0-10.948 3.2-13.588 7.984z" fill="#231F20" p-id="40838"></path><path d="M510.036 223.216c-86.252 0-172.512-10.48-256.368-31.448a19.66 19.66 0 0 1 9.536-38.14c161.48 40.368 332.184 40.368 493.664 0a19.648 19.648 0 0 1 23.836 14.304 19.656 19.656 0 0 1-14.3 23.836c-83.86 20.968-170.116 31.448-256.368 31.448z" fill="#9E5F57" p-id="40839"></path><path d="M677.02 170.168l-31.864-142.824a22.16 22.16 0 0 0-28.244-16.328l-98.984 30.932a22.176 22.176 0 0 1-13.22 0L405.72 11.016a22.164 22.164 0 0 0-28.244 16.328l-31.952 143.224a1023.124 1023.124 0 0 0 331.496-0.4z" fill="#8C5046" p-id="40840"></path><path d="M834.7 986.136l-19.272-346.032a59.8 59.8 0 0 0-45.112-54.668l-82.804-20.844a546.056 546.056 0 0 1-42.6-12.584l-36.632-18.06-7.368-3.632a34.228 34.228 0 0 1-19.092-30.7v-21.048c-13.02 6.432-24.016 11.232-37.152 14.672a128.988 128.988 0 0 1-33.864 4.168l-0.18 0.008c-0.76 0-1.504-0.072-2.26-0.084-1.68-0.048-3.356-0.076-5.032-0.188a126.74 126.74 0 0 1-38.088-8.36c-7.568-2.808-14.924-6.188-23.06-10.208v21.048a34.228 34.228 0 0 1-19.092 30.7l-5.428 2.676-36.452 17.972a522.84 522.84 0 0 1-46.996 14.2l-80.528 20.268a59.8 59.8 0 0 0-45.112 54.668l-19.272 346.036a26.384 26.384 0 0 0 26.344 27.852h592.708a26.4 26.4 0 0 0 26.344-27.86z" fill="#F9D8B7" p-id="40841"></path><path d="M834.7 986.136l-19.276-346.032a59.8 59.8 0 0 0-45.112-54.668l-82.804-20.844a546.056 546.056 0 0 1-42.6-12.584l-36.632-18.06-0.344-0.168c-15.844 37.324-52.832 63.5-95.932 63.5s-80.088-26.176-95.932-63.5l-34.852 17.184a524.14 524.14 0 0 1-46.996 14.2l-80.528 20.268a59.8 59.8 0 0 0-45.112 54.668l-19.272 346.036a26.384 26.384 0 0 0 26.344 27.852H808.36a26.388 26.388 0 0 0 26.34-27.852z" fill="#FCBD4C" p-id="40842"></path><path d="M512 636.588c58.128 0 107.8-36.064 127.96-87.02l-31.684-15.62-0.344-0.168c-15.844 37.324-52.832 63.5-95.932 63.5s-80.088-26.176-95.932-63.5l-32.024 15.792c20.156 50.952 69.828 87.016 127.956 87.016z" fill="#F9D498" p-id="40843"></path><path d="M365.576 671.968H308.544a10.8 10.8 0 0 1-10.796-10.796v-25.58a10.8 10.8 0 0 1 10.796-10.796h57.028a10.8 10.8 0 0 1 10.796 10.796v25.58a10.792 10.792 0 0 1-10.792 10.796z" fill="#FCBD4C" p-id="40844"></path><path d="M715.456 671.968h-55.684v18.528c0 22.336-18.104 40.44-40.44 40.44h-214.664c-22.336 0-40.44-18.104-40.44-40.44v-18.528H308.544c-0.332 0-0.644-0.068-0.968-0.096v342.116h408.848v-342.116c-0.324 0.028-0.636 0.096-0.968 0.096zM715.456 624.796c0.332 0 0.644 0.068 0.968 0.096v-53.024l-28.916-7.28a545.796 545.796 0 0 1-27.736-7.864v68.064h55.684zM308.544 624.796h55.684v-68.18c-9.92 3.136-19.92 6.008-30.012 8.548l-26.64 6.704v53.024c0.324-0.028 0.636-0.096 0.968-0.096z" fill="#515050" p-id="40845"></path><path d="M648.544 214.128c0.168 0.396 0.352 0.784 0.488 1.192l0.42 16.644 0.192 0.032a60.916 60.916 0 0 1 39.032 12.592l1.708-36.812a1048.14 1048.14 0 0 1-41.84 6.352zM333.652 208.472l1.676 36.056a60.88 60.88 0 0 1 40.352-12.508l0.792-17.248a1052.408 1052.408 0 0 1-42.82-6.3z" fill="#E8B16D" p-id="40846"></path><path d="M649.644 231.996l2.948 121.92c33.22-0.608 59.98-27.68 59.98-61.044-0.004-34.736-28.872-61.944-62.928-60.876zM375.68 232.02c-34.632-1.836-64.248 25.664-64.248 60.852 0 33.416 26.836 60.528 60.128 61.052 4.004-144.04 2.56-77.144 4.12-121.904z" fill="#F9D8B7" p-id="40847"></path><path d="M653.188 380.796v-0.036l-0.028-1.076v-0.064 0.012l-0.004-0.244-0.008-0.276-4.108-163.796c-0.14-0.412-0.32-0.8-0.488-1.192a1062.496 1062.496 0 0 1-138.512 9.088c-44.632 0-89.26-2.832-133.56-8.444l-2.648 57.62-3.016 108.504c-3.592 35.196 14.744 69.156 46.36 85.032 26.224 13.172 41.54 21.912 62.164 27.308a128.952 128.952 0 0 0 65.332 0c20.624-5.396 35.94-14.136 62.164-27.308 31.616-15.88 49.952-49.836 46.36-85.032-0.008-0.008-0.008-0.044-0.008-0.096z" fill="#F9D8B7" p-id="40848"></path><path d="M808.352 1023.988H215.644a36.532 36.532 0 0 1-26.432-11.38 36.552 36.552 0 0 1-9.896-27.028l19.272-346.036a69.492 69.492 0 0 1 52.656-63.808l80.528-20.268c15.332-3.86 30.652-8.48 45.544-13.736l41.344-20.388a24.08 24.08 0 0 0 13.516-21.728v-21.048a10.008 10.008 0 0 1 14.428-8.968c9.116 4.5 15.728 7.432 22.108 9.8 11.54 4.448 23.344 7.044 35.208 7.752 1.328 0.088 2.576 0.12 3.828 0.152l0.888 0.024c0.352 0.004 0.796 0.028 1.244 0.052l0.672 0.028c0.584-0.016 0.932 0 1.384 0 10.308 0 20.432-1.292 30.192-3.848 12.38-3.24 22.668-7.744 35.252-13.96a10.012 10.012 0 0 1 14.432 8.968v21.048a24.076 24.076 0 0 0 13.512 21.728l43.412 21.404a537.46 537.46 0 0 0 41.208 12.148l82.804 20.844a69.504 69.504 0 0 1 52.66 63.808l19.272 346.032a36.536 36.536 0 0 1-9.896 27.028 36.524 36.524 0 0 1-26.432 11.38z m-356.172-529.7v5.328c0 16.964-9.452 32.164-24.668 39.668l-41.876 20.648a9.552 9.552 0 0 1-1.084 0.456 536.56 536.56 0 0 1-47.892 14.476l-80.528 20.268a49.588 49.588 0 0 0-37.572 45.528l-19.272 346.036a16.24 16.24 0 0 0 4.456 12.168 16.228 16.228 0 0 0 11.904 5.124h592.708a16.232 16.232 0 0 0 11.904-5.128 16.228 16.228 0 0 0 4.456-12.168l-19.272-346.032a49.584 49.584 0 0 0-37.572-45.528l-82.804-20.844a558.288 558.288 0 0 1-43.38-12.816 9.852 9.852 0 0 1-1.2-0.5l-44-21.692a43.948 43.948 0 0 1-24.668-39.668v-5.332c-7.96 3.452-15.848 6.332-24.62 8.624-11.764 3.084-23.972 4.544-36.284 4.496-0.892 0.02-1.396-0.016-2.064-0.052l-1.616-0.056c-1.528-0.04-3.052-0.084-4.576-0.184a136.66 136.66 0 0 1-41.016-9.008 183.264 183.264 0 0 1-9.464-3.812zM511.856 420.836c-17.912 0-34.6-8.872-44.64-23.732a10 10 0 0 1 16.572-11.196c6.312 9.344 16.804 14.924 28.064 14.924s21.752-5.58 28.064-14.924a10 10 0 0 1 16.572 11.196 53.792 53.792 0 0 1-44.632 23.732zM587.076 280.776c-1.584 0-3.192-0.376-4.688-1.172-2.376-1.264-7.932-2.74-15.772-2.74s-13.4 1.476-15.776 2.74a9.996 9.996 0 1 1-9.392-17.656c6.072-3.232 15.244-5.084 25.168-5.084s19.092 1.852 25.164 5.084a10 10 0 0 1-4.704 18.828zM477.048 280.776c-1.584 0-3.192-0.376-4.688-1.172-2.376-1.264-7.932-2.74-15.772-2.74s-13.4 1.476-15.776 2.74a10 10 0 1 1-9.392-17.656c6.072-3.232 15.244-5.084 25.168-5.084 9.92 0 19.092 1.852 25.164 5.084a10 10 0 0 1-4.704 18.828zM458.22 320.332a12 12 0 0 1-12-12v-2.24a12 12 0 1 1 24 0v2.24a12 12 0 0 1-12 12zM565.492 322.048a12 12 0 0 1-12-12v-2.24a12 12 0 1 1 24 0v2.24a12 12 0 0 1-12 12zM652.8 363.952c-0.1 0-0.424-0.004-0.904-0.056a9.904 9.904 0 0 1-4.512-1.436 9 9 0 0 1-3.576-3.748 9.936 9.936 0 0 1-1.22-4.552v-0.136l-0.016-0.64v-0.076l-0.028-1.108-2.9-119.964a10 10 0 0 1 9.684-10.236c19.472-0.632 37.768 6.508 51.724 20.036 13.872 13.444 21.512 31.5 21.512 50.832 0 38.108-30.72 69.74-68.704 71.016a16.424 16.424 0 0 1-1.032 0.064c0.004 0.004-0.008 0.004-0.028 0.004z m7.104-121.316l2.42 100.12c22.924-5.032 40.244-25.632 40.244-49.884 0-13.876-5.48-26.828-15.432-36.472a50.748 50.748 0 0 0-27.232-13.764zM371.564 363.924h-0.164c-38.58-0.608-69.968-32.484-69.968-71.052 0-19.644 7.844-37.9 22.088-51.408a71.48 71.48 0 0 1 52.688-19.432 10 10 0 0 1 9.464 10.332c-0.54 15.52-0.728 17.848-0.912 20.096-0.3 3.688-0.58 7.168-3.208 101.736a9.996 9.996 0 0 1-9.988 9.728z m-6.28-121.504c-10.444 1.448-20.144 6.104-28.004 13.56a50.38 50.38 0 0 0-15.848 36.896c0 24.344 17.408 44.976 40.432 49.928 2.364-84.52 2.628-87.816 2.964-91.944 0.108-1.328 0.224-2.776 0.456-8.44z" fill="#231F20" p-id="40849"></path><path d="M808.352 1023.988H215.644a36.532 36.532 0 0 1-26.432-11.38 36.552 36.552 0 0 1-9.896-27.028l19.272-346.036c1.712-30.672 22.872-56.316 52.66-63.808l80.528-20.268c15.332-3.86 30.652-8.48 45.548-13.736l34.324-16.924a10.008 10.008 0 0 1 13.628 5.06c14.808 34.876 48.848 57.408 86.728 57.408s71.92-22.532 86.728-57.408a10.02 10.02 0 0 1 5.74-5.472 10.02 10.02 0 0 1 7.916 0.424l36.356 17.924a537.46 537.46 0 0 0 41.208 12.148l82.804 20.844a69.492 69.492 0 0 1 52.656 63.808l19.276 346.032a36.536 36.536 0 0 1-9.896 27.028 36.544 36.544 0 0 1-26.44 11.384z m-396.92-476.776l-25.796 12.72a9.552 9.552 0 0 1-1.084 0.456 536.56 536.56 0 0 1-47.892 14.476l-80.528 20.268a49.588 49.588 0 0 0-37.572 45.528l-19.272 346.036a16.24 16.24 0 0 0 4.456 12.168 16.228 16.228 0 0 0 11.904 5.124h592.708a16.232 16.232 0 0 0 11.904-5.128 16.228 16.228 0 0 0 4.456-12.168l-19.276-346.032a49.58 49.58 0 0 0-37.568-45.528l-82.804-20.844a558.288 558.288 0 0 1-43.38-12.816 9.852 9.852 0 0 1-1.2-0.5l-27.916-13.764c-19.784 36.808-58.196 60.064-100.568 60.064s-80.788-23.256-100.572-60.06z" fill="#231F20" p-id="40850"></path><path d="M512 646.588c-60.952 0-114.828-36.64-137.256-93.344a10 10 0 0 1 4.876-12.648l32.024-15.792a10.008 10.008 0 0 1 13.628 5.06c14.808 34.876 48.848 57.408 86.728 57.408s71.92-22.532 86.728-57.408a10.02 10.02 0 0 1 5.74-5.472 10.02 10.02 0 0 1 7.916 0.424l31.996 15.776a10 10 0 0 1 4.876 12.648c-22.428 56.708-76.308 93.348-137.256 93.348z m-114.98-92.272c21.184 44.196 65.372 72.272 114.98 72.272 49.604 0 93.792-28.076 114.98-72.272l-14.412-7.104c-19.784 36.808-58.196 60.064-100.568 60.064s-80.784-23.256-100.568-60.064l-14.412 7.104zM365.576 681.968H308.544a20.824 20.824 0 0 1-20.8-20.796v-25.58a20.82 20.82 0 0 1 20.8-20.796h57.028a20.82 20.82 0 0 1 20.796 20.796v25.58a20.816 20.816 0 0 1-20.792 20.796z m-57.032-47.172a0.8 0.8 0 0 0-0.8 0.796v25.58a0.8 0.8 0 0 0 0.8 0.796h57.028c0.44 0 0.796-0.356 0.796-0.796v-25.58a0.796 0.796 0 0 0-0.796-0.796H308.544z" fill="#231F20" p-id="40851"></path><path d="M716.424 1023.988H307.576a10 10 0 0 1-10-10v-342.116a10.008 10.008 0 0 1 10.9-9.96l0.508 0.056h55.244a10 10 0 0 1 10 10v18.528c0 16.784 13.656 30.44 30.44 30.44h214.668c16.784 0 30.44-13.656 30.44-30.44v-18.528a10 10 0 0 1 10-10l55.752-0.056a10.008 10.008 0 0 1 10.9 9.96v342.116a10.004 10.004 0 0 1-10.004 10z m-398.848-20h388.848v-322.02h-36.652v8.528c0 27.812-22.628 50.44-50.44 50.44h-214.668c-27.812 0-50.44-22.628-50.44-50.44v-8.528h-36.652v322.02zM714.76 662a7.96 7.96 0 0 0-0.104 0.012l0.104-0.012zM716.424 634.892a9.68 9.68 0 0 1-1.408-0.096h-55.24a10 10 0 0 1-10-10v-68.068a10 10 0 0 1 12.952-9.556c10.388 3.204 19.036 5.66 27.224 7.72l28.916 7.28a10 10 0 0 1 7.56 9.696v53.024a10.008 10.008 0 0 1-10.004 10z m-0.968-0.096h0.04-0.04z m-45.684-20h36.652v-35.132l-21.356-5.376a480.772 480.772 0 0 1-15.292-4.136v44.644zM307.576 634.892a10 10 0 0 1-10-10v-53.024c0-4.584 3.116-8.58 7.56-9.696l26.644-6.704a517.124 517.124 0 0 0 29.436-8.388 9.988 9.988 0 0 1 13.012 9.536v68.18a10 10 0 0 1-10 10l-55.752 0.056a9.8 9.8 0 0 1-0.9 0.04z m1.76-0.14l-0.1 0.012a0.452 0.452 0 0 1 0.1-0.012z m8.24-19.956h36.652v-44.7c-5.956 1.728-11.832 3.324-17.568 4.768l-19.084 4.804v35.128zM510.032 233.216c-87.468 0-174.54-10.68-258.792-31.744a29.46 29.46 0 0 1-18.236-13.512 29.468 29.468 0 0 1-3.34-22.452c3.968-15.86 20.088-25.552 35.964-21.58 159.896 39.972 328.92 39.976 488.812 0a29.416 29.416 0 0 1 22.428 3.324 29.48 29.48 0 0 1 13.536 18.252 29.468 29.468 0 0 1-3.34 22.452 29.456 29.456 0 0 1-18.24 13.512c-84.248 21.068-171.32 31.748-258.792 31.748zM258.436 163.044a9.676 9.676 0 0 0-9.372 7.316 9.604 9.604 0 0 0 1.088 7.312c1.328 2.212 3.432 3.772 5.936 4.4 82.668 20.668 168.108 31.148 253.944 31.148s171.276-10.48 253.944-31.148a9.568 9.568 0 0 0 5.936-4.4 9.6 9.6 0 0 0 1.088-7.312 9.6 9.6 0 0 0-4.412-5.948 9.54 9.54 0 0 0-7.288-1.08c-163.076 40.764-335.456 40.768-498.524 0a9.608 9.608 0 0 0-2.34-0.288z" fill="#231F20" p-id="40852"></path><path d="M688.676 254.592a9.98 9.98 0 0 1-6.084-2.064 51.2 51.2 0 0 0-32.636-10.536 9.256 9.256 0 0 1-1.94-0.128c-4.736-0.78-8.436-4.844-8.56-9.644l-0.372-14.86a10 10 0 0 1 8.156-13.152c13.94-1.832 27.884-3.948 41.444-6.288a10.012 10.012 0 0 1 11.688 10.32l-1.712 36.812a10 10 0 0 1-9.984 9.54z m-28.012-32.028c6.464 0.844 12.788 2.584 18.784 5.148l0.372-8.036c-6.34 1.012-12.74 1.98-19.156 2.888z m-12.12-8.436h0.04-0.04zM335.328 254.528a10.008 10.008 0 0 1-9.988-9.532l-1.676-36.056a9.996 9.996 0 0 1 11.652-10.324c13.736 2.316 28.004 4.416 42.416 6.24a10.004 10.004 0 0 1 8.736 10.38l-0.792 17.248a10.012 10.012 0 0 1-10.52 9.528 51.184 51.184 0 0 0-33.74 10.46c-1.784 1.36-3.924 2.056-6.088 2.056z m8.888-34.212l0.34 7.336a71.204 71.204 0 0 1 16.68-4.82c-5.724-0.8-11.404-1.64-17.02-2.516z" fill="#231F20" p-id="40853"></path><path d="M512 507.428a138.92 138.92 0 0 1-35.196-4.52c-18.444-4.828-32.772-12.12-52.608-22.212-3.612-1.836-7.432-3.78-11.512-5.832-34.884-17.52-55.688-55.504-51.856-94.608l3.008-108.144 2.652-57.8a9.996 9.996 0 0 1 11.248-9.46 1056.78 1056.78 0 0 0 132.304 8.364 1056.52 1056.52 0 0 0 137.208-9 9.956 9.956 0 0 1 10.488 5.96c0.336 0.768 0.58 1.344 0.78 1.944 0.324 0.952 0.5 1.948 0.524 2.952l4.108 163.796h-0.008c0.012 0.164 0.02 0.328 0.024 0.496v0.072l0.02 0.856c3.82 39.092-16.984 77.06-51.86 94.576-4.08 2.048-7.892 3.992-11.504 5.828-19.836 10.096-34.168 17.392-52.62 22.216a139.38 139.38 0 0 1-35.2 4.516zM385.968 226l-2.152 46.852-3.012 108.324a9.188 9.188 0 0 1-0.048 0.74c-3.168 31.032 13.268 61.204 40.9 75.084 4.116 2.068 7.964 4.024 11.608 5.88 19.416 9.88 32.244 16.408 48.6 20.688a119.344 119.344 0 0 0 60.268 0c16.36-4.28 29.192-10.812 48.612-20.692 3.64-1.852 7.484-3.812 11.596-5.876 27.632-13.876 44.068-44.052 40.9-75.084a10.732 10.732 0 0 1-0.052-1.016v-0.096l-0.02-0.768-0.004-0.164-0.004-0.232v-0.004-0.008-0.18h-0.008l-3.864-154.068a1075.956 1075.956 0 0 1-129.252 7.836A1076.92 1076.92 0 0 1 385.968 226zM510.076 193.932a1031.42 1031.42 0 0 1-166.16-13.496 10.008 10.008 0 0 1-8.148-12.044L367.72 25.168a32.244 32.244 0 0 1 15.296-20.84 32.24 32.24 0 0 1 25.692-2.852l98.984 30.932a12.072 12.072 0 0 0 7.256 0L613.936 1.476a32.28 32.28 0 0 1 25.692 2.852 32.244 32.244 0 0 1 15.296 20.84l31.864 142.828a9.988 9.988 0 0 1-8.128 12.044 1031.492 1031.492 0 0 1-168.584 13.892zM357.6 162.352a1009.412 1009.412 0 0 0 307.344-0.376L635.4 29.524a12.048 12.048 0 0 0-5.784-7.884 12.032 12.032 0 0 0-9.72-1.08l-98.984 30.932a32.04 32.04 0 0 1-19.188 0L402.74 20.56a12.048 12.048 0 0 0-9.72 1.08 12.036 12.036 0 0 0-5.784 7.884L357.6 162.352z" fill="#231F20" p-id="40854"></path><path d="M627.728 785.976H396.272c-17.432 0-31.692 14.26-31.692 31.692v113.52c0 17.432 14.264 31.692 31.692 31.692h231.46c17.432 0 31.692-14.26 31.692-31.692v-113.52c-0.004-17.432-14.264-31.692-31.696-31.692z" fill="#3F3F3F" p-id="40855"></path><path d="M627.728 785.976H396.272c-17.432 0-31.692 14.26-31.692 31.692v23.1c0 17.432 14.264 31.692 31.692 31.692h231.46c17.432 0 31.692-14.26 31.692-31.692v-23.1c-0.004-17.432-14.264-31.692-31.696-31.692z" fill="#515050" p-id="40856"></path><path d="M627.728 972.88H396.272c-22.992 0-41.692-18.704-41.692-41.692v-113.52c0-22.992 18.704-41.692 41.692-41.692h231.456c22.992 0 41.692 18.704 41.692 41.692v113.52c0 22.988-18.7 41.692-41.692 41.692z m-231.456-176.904a21.72 21.72 0 0 0-21.692 21.692v113.52a21.72 21.72 0 0 0 21.692 21.692h231.456a21.72 21.72 0 0 0 21.692-21.692v-113.52a21.72 21.72 0 0 0-21.692-21.692H396.272z" fill="#231F20" p-id="40857"></path><path d="M627.728 882.464H396.272c-22.992 0-41.692-18.704-41.692-41.692v-23.1c0-22.992 18.704-41.692 41.692-41.692h231.456c22.992 0 41.692 18.704 41.692 41.692v23.1c0 22.988-18.7 41.692-41.692 41.692z m-231.456-86.488a21.72 21.72 0 0 0-21.692 21.692v23.1a21.72 21.72 0 0 0 21.692 21.692h231.456a21.72 21.72 0 0 0 21.692-21.692v-23.1a21.72 21.72 0 0 0-21.692-21.692H396.272z" fill="#231F20" p-id="40858"></path><path d="M715.456 671.968h-57.028a10.8 10.8 0 0 1-10.796-10.796v-25.58a10.8 10.8 0 0 1 10.796-10.796h57.028a10.8 10.8 0 0 1 10.796 10.796v25.58a10.796 10.796 0 0 1-10.796 10.796z" fill="#FCBD4C" p-id="40859"></path><path d="M715.456 681.968h-57.028a20.824 20.824 0 0 1-20.8-20.796v-25.58a20.82 20.82 0 0 1 20.8-20.796h57.028a20.82 20.82 0 0 1 20.796 20.796v25.58a20.82 20.82 0 0 1-20.796 20.796z m-57.032-47.172a0.8 0.8 0 0 0-0.8 0.796v25.58a0.8 0.8 0 0 0 0.8 0.796h57.028c0.44 0 0.796-0.356 0.796-0.796v-25.58a0.796 0.796 0 0 0-0.796-0.796h-57.028z" fill="#231F20" p-id="40860"></path></svg>